$MeshFormat
4.1 0 8
$EndMeshFormat
$PhysicalNames
5
1 1 "botton"
1 2 "right"
1 3 "top"
1 4 "left"
2 5 "surf1"
$EndPhysicalNames
$Entities
4 4 1 0
1 0 0 0 0 
2 6 0 0 0 
3 6 6 0 0 
4 0 6 0 0 
1 0 0 0 6 0 0 1 1 2 1 -2 
2 6 0 0 6 6 0 1 2 2 2 -3 
3 0 6 0 6 6 0 1 3 2 3 -4 
4 0 0 0 0 6 0 1 4 2 4 -1 
1 0 0 0 6 6 0 1 5 4 1 2 3 4 
$EndEntities
$Nodes
9 48 1 48
0 1 0 1
1
0 0 0
0 2 0 1
2
6 0 0
0 3 0 1
3
6 6 0
0 4 0 1
4
0 6 0
1 1 0 11
5
6
7
8
9
10
11
12
13
14
15
0.9999999999956439 0 0
1.999999999992049 0 0
2.999999999988569 0 0
3.999999999992316 0 0
4.999999999996158 0 0
0.4999999999978941 0 0
1.499999999993747 0 0
2.499999999990353 0 0
3.499999999990552 0 0
4.499999999994049 0 0
5.499999999998281 0 0
1 2 0 11
16
17
18
19
20
21
22
23
24
25
26
6 0.9999999999956439 0
6 1.999999999992049 0
6 2.999999999988569 0
6 3.999999999992316 0
6 4.999999999996158 0
6 0.4999999999978941 0
6 1.499999999993747 0
6 2.499999999990353 0
6 3.499999999990552 0
6 4.499999999994049 0
6 5.499999999998281 0
1 3 0 11
27
28
29
30
31
32
33
34
35
36
37
5.000000000006334 6 0
4.000000000003881 6 0
3.000000000008335 6 0
2.00000000000562 6 0
1.00000000000281 6 0
5.500000000003478 6 0
4.500000000004773 6 0
3.500000000006232 6 0
2.500000000007176 6 0
1.500000000004215 6 0
0.5000000000014051 6 0
1 4 0 11
38
39
40
41
42
43
44
45
46
47
48
0 5.000000000006334 0
0 4.000000000003881 0
0 3.000000000008335 0
0 2.00000000000562 0
0 1.00000000000281 0
0 5.500000000003478 0
0 4.500000000004773 0
0 3.500000000006232 0
0 2.500000000007176 0
0 1.500000000004215 0
0 0.5000000000014051 0
2 1 0 0
$EndNodes
$Elements
4 24 1 24
1 1 8 6
1 1 5 10 
2 5 6 11 
3 6 7 12 
4 7 8 13 
5 8 9 14 
6 9 2 15 
1 2 8 6
7 2 16 21 
8 16 17 22 
9 17 18 23 
10 18 19 24 
11 19 20 25 
12 20 3 26 
1 3 8 6
13 3 27 32 
14 27 28 33 
15 28 29 34 
16 29 30 35 
17 30 31 36 
18 31 4 37 
1 4 8 6
19 4 38 43 
20 38 39 44 
21 39 40 45 
22 40 41 46 
23 41 42 47 
24 42 1 48 
$EndElements
